<svg id="visual" viewBox="0 0 900 600" width="900" height="600" xmlns="http://www.w3.org/2000/svg" xmlns:xlink="http://www.w3.org/1999/xlink" version="1.1"><rect x="0" y="0" width="900" height="600" fill="#FCAF3C"></rect><defs><linearGradient id="grad1_0" x1="33.3%" y1="0%" x2="100%" y2="100%"><stop offset="20%" stop-color="#fcaf3c" stop-opacity="1"></stop><stop offset="80%" stop-color="#fcaf3c" stop-opacity="1"></stop></linearGradient></defs><defs><linearGradient id="grad2_0" x1="0%" y1="0%" x2="66.7%" y2="100%"><stop offset="20%" stop-color="#fcaf3c" stop-opacity="1"></stop><stop offset="80%" stop-color="#fcaf3c" stop-opacity="1"></stop></linearGradient></defs><g transform="translate(900, 0)"><path d="M0 486.7C-47 443.9 -94 401 -159.6 385.3C-225.1 369.5 -309.2 380.8 -344.2 344.2C-379.2 307.6 -365.1 223 -380.6 157.7C-396.2 92.3 -441.5 46.2 -486.7 0L0 0Z" fill="#001122"></path></g><g transform="translate(0, 600)"><path d="M0 -486.7C65.6 -482.4 131.2 -478.1 186.3 -449.7C241.4 -421.3 285.9 -368.9 317.5 -317.5C349 -266.1 367.5 -215.8 393.6 -163C419.6 -110.3 453.2 -55.1 486.7 0L0 0Z" fill="#001122"></path></g></svg>