<svg id="visual" viewBox="0 0 960 540" width="960" height="540" xmlns="http://www.w3.org/2000/svg" xmlns:xlink="http://www.w3.org/1999/xlink" version="1.1"><rect x="0" y="0" width="960" height="540" fill="#4FACF7"></rect><defs><linearGradient id="grad1_0" x1="43.8%" y1="0%" x2="100%" y2="100%"><stop offset="14.444444444444446%" stop-color="#ffffff" stop-opacity="1"></stop><stop offset="85.55555555555554%" stop-color="#ffffff" stop-opacity="1"></stop></linearGradient></defs><defs><linearGradient id="grad1_1" x1="43.8%" y1="0%" x2="100%" y2="100%"><stop offset="14.444444444444446%" stop-color="#ffffff" stop-opacity="1"></stop><stop offset="85.55555555555554%" stop-color="#eaf3fe" stop-opacity="1"></stop></linearGradient></defs><defs><linearGradient id="grad1_2" x1="43.8%" y1="0%" x2="100%" y2="100%"><stop offset="14.444444444444446%" stop-color="#d5e6fd" stop-opacity="1"></stop><stop offset="85.55555555555554%" stop-color="#eaf3fe" stop-opacity="1"></stop></linearGradient></defs><defs><linearGradient id="grad1_3" x1="43.8%" y1="0%" x2="100%" y2="100%"><stop offset="14.444444444444446%" stop-color="#d5e6fd" stop-opacity="1"></stop><stop offset="85.55555555555554%" stop-color="#bfdafc" stop-opacity="1"></stop></linearGradient></defs><defs><linearGradient id="grad1_4" x1="43.8%" y1="0%" x2="100%" y2="100%"><stop offset="14.444444444444446%" stop-color="#a8cffb" stop-opacity="1"></stop><stop offset="85.55555555555554%" stop-color="#bfdafc" stop-opacity="1"></stop></linearGradient></defs><defs><linearGradient id="grad1_5" x1="43.8%" y1="0%" x2="100%" y2="100%"><stop offset="14.444444444444446%" stop-color="#a8cffb" stop-opacity="1"></stop><stop offset="85.55555555555554%" stop-color="#8fc3fa" stop-opacity="1"></stop></linearGradient></defs><defs><linearGradient id="grad1_6" x1="43.8%" y1="0%" x2="100%" y2="100%"><stop offset="14.444444444444446%" stop-color="#73b7f8" stop-opacity="1"></stop><stop offset="85.55555555555554%" stop-color="#8fc3fa" stop-opacity="1"></stop></linearGradient></defs><defs><linearGradient id="grad1_7" x1="43.8%" y1="0%" x2="100%" y2="100%"><stop offset="14.444444444444446%" stop-color="#73b7f8" stop-opacity="1"></stop><stop offset="85.55555555555554%" stop-color="#4facf7" stop-opacity="1"></stop></linearGradient></defs><defs><linearGradient id="grad2_0" x1="0%" y1="0%" x2="56.3%" y2="100%"><stop offset="14.444444444444446%" stop-color="#ffffff" stop-opacity="1"></stop><stop offset="85.55555555555554%" stop-color="#ffffff" stop-opacity="1"></stop></linearGradient></defs><defs><linearGradient id="grad2_1" x1="0%" y1="0%" x2="56.3%" y2="100%"><stop offset="14.444444444444446%" stop-color="#eaf3fe" stop-opacity="1"></stop><stop offset="85.55555555555554%" stop-color="#ffffff" stop-opacity="1"></stop></linearGradient></defs><defs><linearGradient id="grad2_2" x1="0%" y1="0%" x2="56.3%" y2="100%"><stop offset="14.444444444444446%" stop-color="#eaf3fe" stop-opacity="1"></stop><stop offset="85.55555555555554%" stop-color="#d5e6fd" stop-opacity="1"></stop></linearGradient></defs><defs><linearGradient id="grad2_3" x1="0%" y1="0%" x2="56.3%" y2="100%"><stop offset="14.444444444444446%" stop-color="#bfdafc" stop-opacity="1"></stop><stop offset="85.55555555555554%" stop-color="#d5e6fd" stop-opacity="1"></stop></linearGradient></defs><defs><linearGradient id="grad2_4" x1="0%" y1="0%" x2="56.3%" y2="100%"><stop offset="14.444444444444446%" stop-color="#bfdafc" stop-opacity="1"></stop><stop offset="85.55555555555554%" stop-color="#a8cffb" stop-opacity="1"></stop></linearGradient></defs><defs><linearGradient id="grad2_5" x1="0%" y1="0%" x2="56.3%" y2="100%"><stop offset="14.444444444444446%" stop-color="#8fc3fa" stop-opacity="1"></stop><stop offset="85.55555555555554%" stop-color="#a8cffb" stop-opacity="1"></stop></linearGradient></defs><defs><linearGradient id="grad2_6" x1="0%" y1="0%" x2="56.3%" y2="100%"><stop offset="14.444444444444446%" stop-color="#8fc3fa" stop-opacity="1"></stop><stop offset="85.55555555555554%" stop-color="#73b7f8" stop-opacity="1"></stop></linearGradient></defs><defs><linearGradient id="grad2_7" x1="0%" y1="0%" x2="56.3%" y2="100%"><stop offset="14.444444444444446%" stop-color="#4facf7" stop-opacity="1"></stop><stop offset="85.55555555555554%" stop-color="#73b7f8" stop-opacity="1"></stop></linearGradient></defs><g transform="translate(960, 0)"><path d="M0 462C-52.6 435.2 -105.3 408.3 -160 386.2C-214.6 364 -271.3 346.6 -310.4 310.4C-349.5 274.3 -370.9 219.4 -397.3 164.6C-423.6 109.7 -454.8 54.9 -486 0L0 0Z" fill="#62b2f8"></path><path d="M0 404.3C-46.1 380.8 -92.1 357.3 -140 337.9C-187.8 318.5 -237.4 303.3 -271.6 271.6C-305.8 240 -324.6 192 -347.6 144C-370.6 96 -397.9 48 -425.2 0L0 0Z" fill="#81bdf9"></path><path d="M0 346.5C-39.5 326.4 -79 306.2 -120 289.6C-161 273 -203.5 259.9 -232.8 232.8C-262.1 205.7 -278.2 164.6 -298 123.4C-317.7 82.3 -341.1 41.1 -364.5 0L0 0Z" fill="#9cc9fa"></path><path d="M0 288.8C-32.9 272 -65.8 255.2 -100 241.4C-134.1 227.5 -169.6 216.6 -194 194C-218.4 171.4 -231.8 137.1 -248.3 102.8C-264.7 68.6 -284.2 34.3 -303.7 0L0 0Z" fill="#b4d4fc"></path><path d="M0 231C-26.3 217.6 -52.6 204.2 -80 193.1C-107.3 182 -135.7 173.3 -155.2 155.2C-174.7 137.1 -185.5 109.7 -198.6 82.3C-211.8 54.9 -227.4 27.4 -243 0L0 0Z" fill="#cae0fd"></path><path d="M0 173.3C-19.7 163.2 -39.5 153.1 -60 144.8C-80.5 136.5 -101.8 130 -116.4 116.4C-131.1 102.8 -139.1 82.3 -149 61.7C-158.8 41.1 -170.5 20.6 -182.2 0L0 0Z" fill="#e0edfe"></path><path d="M0 115.5C-13.2 108.8 -26.3 102.1 -40 96.5C-53.7 91 -67.8 86.6 -77.6 77.6C-87.4 68.6 -92.7 54.9 -99.3 41.1C-105.9 27.4 -113.7 13.7 -121.5 0L0 0Z" fill="#f5f9ff"></path><path d="M0 57.8C-6.6 54.4 -13.2 51 -20 48.3C-26.8 45.5 -33.9 43.3 -38.8 38.8C-43.7 34.3 -46.4 27.4 -49.7 20.6C-52.9 13.7 -56.8 6.9 -60.7 0L0 0Z" fill="#ffffff"></path></g><g transform="translate(0, 540)"><path d="M0 -484C66.4 -480.3 132.9 -476.6 186 -449C239.1 -421.4 278.9 -369.8 322.4 -322.4C365.9 -275 413.1 -231.8 431.5 -178.7C449.8 -125.7 439.4 -62.8 429 0L0 0Z" fill="#62b2f8"></path><path d="M0 -423.5C58.1 -420.3 116.2 -417 162.7 -392.9C209.2 -368.7 244.1 -323.6 282.1 -282.1C320.2 -240.7 361.4 -202.8 377.5 -156.4C393.6 -110 384.5 -55 375.4 0L0 0Z" fill="#81bdf9"></path><path d="M0 -363C49.8 -360.2 99.6 -357.5 139.5 -336.8C179.3 -316 209.2 -277.4 241.8 -241.8C274.4 -206.3 309.8 -173.8 323.6 -134C337.4 -94.2 329.6 -47.1 321.8 0L0 0Z" fill="#9cc9fa"></path><path d="M0 -302.5C41.5 -300.2 83 -297.9 116.2 -280.6C149.4 -263.4 174.3 -231.2 201.5 -201.5C228.7 -171.9 258.2 -144.9 269.7 -111.7C281.1 -78.5 274.6 -39.3 268.1 0L0 0Z" fill="#b4d4fc"></path><path d="M0 -242C33.2 -240.2 66.4 -238.3 93 -224.5C119.6 -210.7 139.5 -184.9 161.2 -161.2C183 -137.5 206.5 -115.9 215.7 -89.4C224.9 -62.8 219.7 -31.4 214.5 0L0 0Z" fill="#cae0fd"></path><path d="M0 -181.5C24.9 -180.1 49.8 -178.7 69.7 -168.4C89.7 -158 104.6 -138.7 120.9 -120.9C137.2 -103.1 154.9 -86.9 161.8 -67C168.7 -47.1 164.8 -23.6 160.9 0L0 0Z" fill="#e0edfe"></path><path d="M0 -121C16.6 -120.1 33.2 -119.2 46.5 -112.3C59.8 -105.3 69.7 -92.5 80.6 -80.6C91.5 -68.8 103.3 -57.9 107.9 -44.7C112.5 -31.4 109.9 -15.7 107.3 0L0 0Z" fill="#f5f9ff"></path><path d="M0 -60.5C8.3 -60 16.6 -59.6 23.2 -56.1C29.9 -52.7 34.9 -46.2 40.3 -40.3C45.7 -34.4 51.6 -29 53.9 -22.3C56.2 -15.7 54.9 -7.9 53.6 0L0 0Z" fill="#ffffff"></path></g></svg>